<svg id="Group_3210" data-name="Group 3210" xmlns="http://www.w3.org/2000/svg" xmlns:xlink="http://www.w3.org/1999/xlink" width="517.382" height="443.229" viewBox="0 0 517.382 443.229">
  <defs>
    <linearGradient id="linear-gradient" x1="0.5" x2="0.5" y2="1" gradientUnits="objectBoundingBox">
      <stop offset="0" stop-color="#6a5dd1"/>
      <stop offset="1" stop-color="#8174ea"/>
    </linearGradient>
  </defs>
  <g id="OBJECTS" transform="translate(0 0)">
    <g id="Group_3207" data-name="Group 3207">
      <g id="Group_3204" data-name="Group 3204">
        <path id="Path_25584" data-name="Path 25584" d="M42.3,498.772V98.492h.01l.015-21.475c-5.885,0-5.885,8.692-11.771,8.692s-5.885-8.692-11.771-8.692S12.9,85.709,7.019,85.709,1.136,77.017-4.748,77.017s-5.88,8.692-11.762,8.692-5.879-8.692-11.758-8.692-5.88,8.692-11.76,8.692-5.88-8.692-11.762-8.692-5.88,8.692-11.761,8.692-5.882-8.692-11.763-8.692-5.88,8.692-11.761,8.692-5.879-8.692-11.76-8.692-5.879,8.692-11.76,8.692-5.88-8.692-11.761-8.692-5.879,8.692-11.76,8.692-5.878-8.692-11.756-8.692-5.879,8.692-11.76,8.692-5.878-8.692-11.756-8.692-5.878,8.692-11.756,8.692-5.877-8.692-11.755-8.692-5.878,8.692-11.757,8.692-5.875-8.692-11.752-8.692-5.878,8.692-11.757,8.692-5.878-8.692-11.757-8.692-5.879,8.692-11.758,8.692-5.879-8.692-11.758-8.692-5.879,8.692-11.757,8.692-5.88-8.692-11.76-8.692-5.878,8.692-11.757,8.692-5.879-8.692-11.76-8.692-5.878,8.692-11.756,8.692-5.879-8.692-11.758-8.692-5.878,8.692-11.756,8.692-5.879-8.692-11.757-8.692-5.879,8.692-11.758,8.692-5.877-8.692-11.755-8.692-5.879,8.692-11.757,8.692-5.879-8.692-11.757-8.692-5.877,8.692-11.755,8.692-5.878-8.692-11.757-8.692-5.878,8.692-11.756,8.692-5.878-8.692-11.755-8.692-5.878,8.692-11.755,8.692-5.879-8.692-11.758-8.692V98.4h.008V498.861h-.008v21.385c5.879,0,5.879-8.692,11.758-8.692s5.877,8.692,11.755,8.692,5.877-8.692,11.755-8.692,5.878,8.692,11.756,8.692,5.879-8.692,11.757-8.692,5.878,8.692,11.755,8.692,5.878-8.692,11.757-8.692,5.878,8.692,11.757,8.692,5.878-8.692,11.755-8.692,5.879,8.692,11.758,8.692,5.878-8.692,11.757-8.692,5.878,8.692,11.756,8.692,5.879-8.692,11.758-8.692,5.878,8.692,11.756,8.692,5.88-8.692,11.76-8.692,5.879,8.692,11.757,8.692,5.879-8.692,11.76-8.692,5.878,8.692,11.757,8.692,5.879-8.692,11.758-8.692,5.879,8.692,11.758,8.692,5.879-8.692,11.757-8.692,5.879,8.692,11.757,8.692,5.877-8.692,11.752-8.692,5.879,8.692,11.757,8.692,5.878-8.692,11.755-8.692,5.878,8.692,11.756,8.692,5.878-8.692,11.756-8.692,5.88,8.692,11.76,8.692,5.878-8.692,11.756-8.692,5.88,8.692,11.76,8.692,5.88-8.692,11.761-8.692,5.88,8.692,11.76,8.692,5.88-8.692,11.76-8.692,5.88,8.692,11.761,8.692,5.882-8.692,11.763-8.692,5.88,8.692,11.761,8.692,5.882-8.692,11.762-8.692,5.879,8.692,11.76,8.692,5.879-8.692,11.758-8.692,5.882,8.692,11.762,8.692,5.884-8.692,11.767-8.692,5.88,8.692,11.762,8.692,5.885-8.692,11.771-8.692,5.885,8.692,11.771,8.692l-.015-21.474Z" transform="translate(475.059 -77.017)" fill="#fff"/>
      </g>
      <g id="Group_3205" data-name="Group 3205" transform="translate(41.533 93.012)" opacity="0.28">
        <path id="Path_25585" data-name="Path 25585" d="M-403.606,198.969c0,14.6-10.322,24.164-24.166,24.164-14.1,0-24.417-9.817-24.417-24.164,0-6.545,1.006-11.328,6.8-25.172l14.6-36.248h24.922l-11.076,40.024C-408.642,181.1-403.606,188.647-403.606,198.969Zm59.4,0c0,14.6-10.321,24.164-24.164,24.164-14.1,0-24.417-9.817-24.417-24.164,0-6.545,1.006-11.328,6.8-25.172l14.6-36.248h24.92l-11.076,40.024C-349.234,181.1-344.2,188.647-344.2,198.969Z" transform="translate(452.189 -137.549)" fill="url(#linear-gradient)"/>
      </g>
      <g id="Group_3206" data-name="Group 3206" transform="translate(370.691 286.967)" opacity="0.28">
        <path id="Path_25586" data-name="Path 25586" d="M-96.807,195.9c0,6.545-1.008,11.328-6.547,25.174l-14.6,36.248h-24.92l10.824-39.773c-8.056-3.525-13.341-11.076-13.341-21.649,0-14.6,10.571-24.164,24.417-24.164C-106.877,171.739-96.807,181.555-96.807,195.9Zm59.406,0c0,6.545-1.008,11.328-6.545,25.174l-14.6,36.248h-24.92l10.825-39.773c-8.056-3.525-13.342-11.076-13.342-21.649,0-14.6,10.571-24.164,24.417-24.164C-47.469,171.739-37.4,181.555-37.4,195.9Z" transform="translate(145.39 -171.739)" fill="url(#linear-gradient)"/>
      </g>
    </g>
  </g>
</svg>
